<?xml version="1.0" standalone="no"?>
<!DOCTYPE svg PUBLIC "-//W3C//DTD SVG 20010904//EN"
 "http://www.w3.org/TR/2001/REC-SVG-20010904/DTD/svg10.dtd">
<svg version="1.0" xmlns="http://www.w3.org/2000/svg"
 width="941.000000pt" height="293.000000pt" viewBox="0 0 941.000000 293.000000"
 preserveAspectRatio="xMidYMid meet">

<g transform="translate(0.000000,293.000000) scale(0.100000,-0.100000)"
fill="#000000" stroke="none">
<path d="M0 1465 l0 -1465 4705 0 4705 0 0 1465 0 1465 -4705 0 -4705 0 0
-1465z m9130 220 l0 -1045 -120 0 -120 0 0 920 0 920 -910 0 -910 0 0 125 0
125 1030 0 1030 0 0 -1045z m-8616 471 c4 -57 7 -201 6 -322 -1 -120 -1 -488
-1 -816 l1 -598 908 0 907 0 -3 -120 -3 -120 -1030 0 -1029 0 0 1043 0 1042
119 -3 118 -3 7 -103z m1121 24 c28 -6 57 -14 65 -18 23 -8 37 -12 45 -12 13
1 145 -75 180 -103 95 -78 155 -152 204 -252 60 -122 72 -170 77 -305 6 -166
-38 -318 -126 -435 -88 -118 -169 -187 -282 -240 -119 -57 -188 -67 -483 -68
l-260 -2 -3 729 -2 729 267 -6 c154 -3 289 -10 318 -17z m1388 11 l157 -1 0
-140 0 -140 -117 -1 c-65 -1 -134 -3 -153 -4 -19 -2 -79 -4 -132 -4 l-98 -1 0
-140 0 -140 234 0 c178 0 235 -3 238 -12 2 -7 5 -73 7 -145 l3 -133 -159 -1
c-206 -2 -304 -6 -311 -14 -4 -3 -8 -67 -10 -141 l-4 -134 109 -1 c59 -1 115
-3 123 -4 8 -1 72 -3 143 -4 l127 -1 0 -140 0 -140 -162 -1 c-90 0 -277 -3
-415 -5 l-253 -4 0 730 0 730 258 -4 c141 -2 328 -5 415 -5z m607 -570 l0
-581 250 0 250 0 0 -150 0 -151 -412 7 c-227 3 -414 7 -415 8 -2 2 -4 912 -3
1333 l0 102 28 3 c15 2 89 5 165 6 l137 3 0 -580z m970 -151 l0 -731 -82 5
c-46 2 -120 5 -166 5 l-82 1 2 717 3 717 24 6 c13 3 86 7 162 8 l139 4 0 -732z
m1011 585 c-1 -76 -3 -140 -4 -142 -2 -1 -350 -11 -479 -13 -16 0 -18 -13 -18
-140 l0 -140 230 0 230 0 1 -127 c0 -71 2 -136 4 -145 3 -17 -13 -18 -231 -18
l-234 0 -2 -292 -3 -293 -167 -3 -168 -2 0 730 0 730 421 -2 421 -3 -1 -140z
m429 -585 l0 -730 -165 0 -165 0 0 730 0 730 165 0 165 0 0 -730z m648 723
l302 -6 0 -139 0 -138 -87 -1 c-49 0 -146 -3 -218 -5 -71 -2 -145 -4 -163 -4
l-33 0 3 -137 3 -138 233 -3 c173 -2 234 -6 237 -15 2 -6 5 -72 7 -145 l3
-132 -242 0 -243 0 0 -144 0 -144 250 -7 250 -7 0 -139 0 -139 -117 0 c-65 -1
-252 -3 -415 -6 l-298 -6 0 731 0 731 113 0 c63 0 249 -3 415 -7z m1017 -8
c154 -15 197 -30 305 -104 106 -72 210 -184 252 -271 92 -190 101 -432 23
-630 -14 -35 -31 -70 -39 -79 -7 -9 -21 -29 -29 -46 -16 -30 -95 -116 -133
-145 -104 -79 -171 -115 -252 -134 -81 -20 -127 -24 -399 -32 l-243 -7 0 733
0 733 238 -7 c130 -4 255 -9 277 -11z"/>
<path d="M1397 1894 c-3 -4 -6 -199 -7 -435 l0 -428 22 4 c13 2 47 6 76 10 88
10 195 63 245 119 49 56 57 68 76 108 44 97 51 259 16 359 -39 110 -171 226
-286 254 -67 15 -131 19 -142 9z"/>
<path d="M7520 1469 l0 -437 48 5 c166 16 284 84 360 208 40 66 47 97 47 235
0 109 -2 118 -32 180 -17 36 -47 82 -66 103 -36 38 -137 113 -137 101 0 -4 -7
-1 -15 6 -8 7 -15 10 -15 6 0 -3 -12 -1 -27 5 -16 6 -58 14 -95 18 l-68 7 0
-437z"/>
</g>
</svg>
