<?xml version="1.0" standalone="no"?>
<!DOCTYPE svg PUBLIC "-//W3C//DTD SVG 20010904//EN"
 "http://www.w3.org/TR/2001/REC-SVG-20010904/DTD/svg10.dtd">
<svg version="1.0" xmlns="http://www.w3.org/2000/svg"
 width="706.000000pt" height="220.000000pt" viewBox="0 0 706.000000 220.000000"
 preserveAspectRatio="xMidYMid meet">

<g transform="translate(0.000000,220.000000) scale(0.100000,-0.100000)"
fill="#000000" stroke="none">
<path d="M5300 1955 l0 -95 685 0 685 0 0 -690 0 -690 90 0 90 0 0 785 0 785
-775 0 -775 0 0 -95z"/>
<path d="M202 918 l3 -783 770 0 770 0 3 92 3 93 -681 0 -680 0 -2 688 -3 687
-93 3 -92 3 2 -783z"/>
<path d="M790 1105 l0 -545 198 0 c221 0 273 9 382 63 85 42 188 145 229 229
105 214 68 470 -93 630 -79 80 -151 122 -250 148 -66 17 -111 20 -273 20
l-193 0 0 -545z m417 295 c63 -28 126 -91 155 -154 32 -73 32 -210 0 -281 -47
-103 -143 -171 -258 -182 l-64 -6 0 320 c0 176 3 323 8 327 12 13 108 -1 159
-24z"/>
<path d="M1760 1105 l0 -545 313 2 312 3 0 105 0 105 -188 3 -188 2 3 108 3
107 178 3 178 2 -3 108 -3 107 -177 3 -178 2 0 105 0 105 188 2 187 3 0 105 0
105 -312 3 -313 2 0 -545z"/>
<path d="M2475 1638 c-3 -7 -4 -251 -3 -543 l3 -530 313 -3 312 -2 0 110 0
110 -190 0 -190 0 0 435 0 435 -120 0 c-87 0 -122 -3 -125 -12z"/>
<path d="M3205 1638 c-3 -7 -4 -251 -3 -543 l3 -530 123 -3 122 -3 0 546 0
545 -120 0 c-87 0 -122 -3 -125 -12z"/>
<path d="M3580 1105 l0 -545 125 0 125 0 0 220 0 220 175 0 176 0 -3 108 -3
107 -172 3 -173 2 0 105 0 105 188 2 187 3 3 108 3 107 -316 0 -315 0 0 -545z"/>
<path d="M4280 1105 l0 -545 125 0 125 0 0 545 0 545 -125 0 -125 0 0 -545z"/>
<path d="M4620 1105 l0 -545 313 2 312 3 0 105 0 105 -187 3 -188 2 0 110 0
110 180 0 181 0 -3 108 -3 107 -177 3 -178 2 0 105 0 105 188 2 187 3 0 105 0
105 -312 3 -313 2 0 -545z"/>
<path d="M5390 1105 l0 -547 223 4 c252 5 286 12 405 90 156 102 236 255 236
453 0 201 -77 345 -245 459 -99 67 -155 79 -401 84 l-218 4 0 -547z m420 294
c58 -25 123 -92 153 -157 31 -67 31 -207 1 -273 -50 -107 -145 -175 -260 -186
l-64 -6 0 328 0 328 60 -6 c34 -4 83 -16 110 -28z"/>
</g>
</svg>
